<svg xmlns="http://www.w3.org/2000/svg" width="551.000000pt" height="130.000000pt" viewBox="0 0 551.000000 130.000000">
    <g transform="translate(0.000000,130.000000) scale(0.100000,-0.100000)"
       fill="#ffffff" stroke="none">
        <path d="M4360 1024 l0 -266 -37 32 c-68 60 -115 75 -238 75 -101 0 -115 -2
        -170 -29 -161 -80 -248 -259 -224 -461 17 -137 104 -261 224 -321 55 -27 69
        -29 170 -29 126 0 172 15 243 80 l41 36 3 -53 3 -53 80 0 80 0 3 628 2 627
        -90 0 -90 0 0 -266z m-132 -340 c85 -42 132 -128 132 -240 0 -158 -98 -264
        -245 -264 -148 0 -247 107 -247 265 0 115 44 194 134 239 72 36 154 36 226 0z"/>
        <path d="M1143 855 c-105 -29 -185 -86 -244 -172 -97 -140 -96 -346 2 -490
        139 -202 456 -241 659 -81 16 13 29 27 29 32 1 4 -16 31 -36 60 -20 28 -37 52
        -38 54 -1 1 -28 -14 -61 -33 -77 -47 -124 -58 -211 -53 -58 4 -82 11 -120 34
        -53 33 -100 93 -109 142 l-6 32 305 0 306 0 7 58 c9 69 -6 161 -35 223 -57
        121 -173 196 -316 204 -54 3 -97 0 -132 -10z m221 -172 c43 -29 86 -100 86
        -140 l0 -23 -220 0 c-146 0 -220 4 -220 10 0 18 41 93 64 118 68 76 208 92
        290 35z"/>
        <path d="M2147 860 c-51 -13 -96 -37 -129 -68 l-28 -26 0 42 0 42 -80 0 -80 0
        0 -410 0 -410 84 0 85 0 3 272 c3 245 5 277 22 311 54 109 229 128 301 33 38
        -50 44 -104 45 -368 l0 -248 85 0 85 0 0 294 c0 334 -5 365 -73 442 -56 63
        -123 95 -211 100 -39 2 -88 -1 -109 -6z"/>
        <path d="M3053 855 c-105 -29 -185 -86 -244 -172 -97 -140 -96 -346 2 -490
        139 -202 456 -241 659 -81 16 13 29 27 29 32 1 4 -16 31 -36 60 -20 28 -37 52
        -38 54 -1 1 -28 -14 -61 -33 -77 -47 -124 -58 -211 -53 -58 4 -82 11 -120 34
        -53 33 -100 93 -109 142 l-6 32 305 0 306 0 7 58 c9 69 -6 161 -35 223 -57
        121 -173 196 -316 204 -54 3 -97 0 -132 -10z m221 -172 c43 -29 86 -100 86
        -140 l0 -23 -220 0 c-146 0 -220 4 -220 10 0 18 41 93 64 118 68 76 208 92
        290 35z"/>
        <path d="M50 775 l0 -75 195 0 c107 0 195 -2 195 -5 0 -3 -93 -139 -207 -302
        -139 -201 -208 -309 -211 -330 l-4 -33 346 0 346 0 0 75 0 75 -214 2 -215 3
        215 307 c142 205 214 316 214 332 l0 26 -330 0 -330 0 0 -75z"/>
        <path d="M4782 558 l3 -293 28 -57 c36 -73 116 -147 188 -173 39 -15 77 -20
        139 -19 147 1 247 57 308 172 43 80 52 152 52 430 l0 232 -89 0 -90 0 -3 -277
        c-3 -254 -5 -281 -22 -310 -85 -140 -300 -106 -336 53 -5 21 -10 150 -10 287
        l0 247 -86 0 -85 0 3 -292z"/>
    </g>
</svg>
